<?xml version="1.0" encoding="UTF-8" standalone="no"?>
<svg
   width="24"
   height="24"
   viewBox="0 0 24 24"
   fill="none"
   version="1.1"
   id="svg1"
   sodipodi:docname="trashIcon.svg"
   inkscape:version="1.3.2 (091e20e, 2023-11-25)"
   xmlns:inkscape="http://www.inkscape.org/namespaces/inkscape"
   xmlns:sodipodi="http://sodipodi.sourceforge.net/DTD/sodipodi-0.dtd"
   xmlns="http://www.w3.org/2000/svg"
   xmlns:svg="http://www.w3.org/2000/svg">
  <defs
     id="defs1" />
  <sodipodi:namedview
     id="namedview1"
     pagecolor="#505050"
     bordercolor="#eeeeee"
     borderopacity="1"
     inkscape:showpageshadow="0"
     inkscape:pageopacity="0"
     inkscape:pagecheckerboard="0"
     inkscape:deskcolor="#505050"
     inkscape:zoom="5.6581616"
     inkscape:cx="19.529311"
     inkscape:cy="20.943198"
     inkscape:window-width="1120"
     inkscape:window-height="636"
     inkscape:window-x="86"
     inkscape:window-y="25"
     inkscape:window-maximized="0"
     inkscape:current-layer="svg1" />
  <path
     id="rect7"
     style="fill:#000000;stroke:#f4d7d7;stroke-width:0;stroke-dasharray:none"
     d="m 10.375008,1.397383 c -0.781991,0 -1.411835,1.74071 -1.411835,2.5748241 V 5.153118 H 3.469988 c -1.206148,0 -2.177288,0.7674093 -2.177288,1.7196821 0,0.9522726 0.97114,1.7186376 2.177288,1.7186376 H 3.71238 V 20.412033 c 0,1.213663 0.971142,2.190584 2.177288,2.190584 h 12.221727 c 1.206146,0 2.176224,-0.976921 2.176224,-2.190584 V 8.5914377 h 0.242393 c 1.206148,0 2.177288,-0.7663651 2.177288,-1.7186376 0,-0.9522727 -0.97114,-1.719682 -2.177288,-1.719682 H 15.03789 V 3.9722072 c 0,-0.8341142 -0.629845,-2.5748241 -1.411835,-2.5748241 z m 0.913227,1.4022663 h 1.464992 c 0.352325,0 0.615551,0.6961997 0.615551,0.8582748 v 1.4346344 c 0,0.020708 -0.005,0.041094 -0.01382,0.06056 h -2.708852 c -0.0088,-0.019464 -0.01382,-0.039851 -0.01382,-0.06056 V 3.6579241 c 0,-0.1620752 0.303625,-0.8582748 0.655949,-0.8582748 z m 1.982735,4.388478 c 0.244828,0.00602 0.503066,0.055242 0.775021,0.148266 0.65882,0.2253557 1.036662,0.5525585 1.133295,0.9825261 0.09872,0.4240686 0.0302,0.9670436 -0.204121,1.6277995 -0.13808,0.3893721 -0.304845,0.7751091 -0.500733,1.1579401 l -2.041207,4.19427 c -0.237732,0.500821 -0.494116,0.859486 -0.768643,1.076497 -0.274525,0.217011 -0.614586,0.255825 -1.020603,0.116942 -0.413678,-0.141502 -0.654072,-0.372791 -0.720801,-0.693301 -0.06464,-0.326411 -0.03419,-0.775726 0.09143,-1.347972 l 1.135421,-4.364462 C 11.37398,9.2371039 11.549722,8.6328529 11.677341,8.2729775 11.850987,7.7833117 12.151101,7.4585525 12.576749,7.299849 12.794448,7.218858 13.026144,7.1821104 13.270971,7.1881275 Z M 9.437329,17.924915 c 0.227937,0.0052 0.462479,0.04902 0.70379,0.131561 0.482624,0.165085 0.845753,0.435363 1.09077,0.810243 0.25477,0.371602 0.317885,0.739959 0.188175,1.105735 -0.146449,0.412972 -0.433782,0.678605 -0.862199,0.79667 -0.428416,0.118067 -0.872457,0.09876 -1.332099,-0.05847 C 8.758463,20.55081 8.388785,20.295932 8.117985,19.945307 7.856939,19.591405 7.801471,19.204152 7.950012,18.78528 c 0.129711,-0.365776 0.40349,-0.619122 0.822861,-0.760128 0.214562,-0.07214 0.436518,-0.105436 0.664456,-0.100241 z"
     sodipodi:nodetypes="sscssscsssscssscsssssssccssssscsccsscccscssscssscsss" />
</svg>
